<?xml version="1.0" encoding="utf-8"?>
<!-- Generator: Adobe Illustrator 16.0.0, SVG Export Plug-In . SVG Version: 6.00 Build 0)  -->
<!DOCTYPE svg PUBLIC "-//W3C//DTD SVG 1.1//EN" "http://www.w3.org/Graphics/SVG/1.1/DTD/svg11.dtd">
<svg version="1.1" id="Calque_1" xmlns="http://www.w3.org/2000/svg" xmlns:xlink="http://www.w3.org/1999/xlink" x="0px" y="0px"
	 width="283.464px" height="283.464px" viewBox="0 0 283.464 283.464" enable-background="new 0 0 283.464 283.464"
	 xml:space="preserve">
<g>
	<path fill="#FFFFFF" d="M85.237,240.266H14.71V43.198h43.262v159.942h27.264V240.266z"/>
	<polygon fill="#FFFFFF" points="270.787,63.995 249.989,63.995 249.989,43.198 229.201,43.198 229.201,63.995 208.39,63.995 
		208.39,84.798 229.201,84.798 229.201,105.588 249.989,105.588 249.989,84.798 270.787,84.798 	"/>
	<path fill="#FFFFFF" d="M100.05,204.269h0.246c17.299-0.294,31.253-1.957,42.428-17.593c6.143-8.652,12.002-21.772,12.002-45.778
		c0-5.866,0.276-32.947-17.586-49.411c-4.191-3.633-9.769-6.971-14.801-8.923c-6.971-2.804-13.678-3.363-28.473-3.363H71.964V43.198
		h26.933c6.425,0,12.556,0.276,18.98,0.559c17.581,1.399,31.818,5.295,46.055,16.182c32.947,25.405,34.34,67.557,34.34,79.278
		c0,9.217-1.117,18.415-1.677,21.226c-2.514,20.361-8.099,37.396-22.047,53.025c-4.191,4.744-13.401,15.072-29.314,20.945
		c-15.918,6.136-28.701,5.584-45.184,5.854l0,0V204.269z"/>
</g>
</svg>
