<?xml version="1.0" encoding="utf-8"?>
<!-- Generator: Adobe Illustrator 16.0.0, SVG Export Plug-In . SVG Version: 6.00 Build 0)  -->
<!DOCTYPE svg PUBLIC "-//W3C//DTD SVG 1.1//EN" "http://www.w3.org/Graphics/SVG/1.1/DTD/svg11.dtd">
<svg version="1.1" id="Calque_1" xmlns="http://www.w3.org/2000/svg" xmlns:xlink="http://www.w3.org/1999/xlink" x="0px" y="0px"
	 width="283.465px" height="283.465px" viewBox="279.213 0 283.465 283.465" enable-background="new 279.213 0 283.465 283.465"
	 xml:space="preserve">
<g id="XMLID_1811_">
	<path id="XMLID_1820_" fill="#222221" d="M507.959,277.544H332.214c-26.951,0-48.812-21.847-48.812-48.812V53.014
		c0-26.951,21.86-48.825,48.812-48.825h175.745c26.951,0,48.812,21.847,48.812,48.825v175.718
		C556.77,255.697,534.91,277.544,507.959,277.544z"/>
	<g id="XMLID_1812_">
		<path id="XMLID_1817_" fill="#FFFFFF" d="M420.094,79.444c20.008,0,22.381,0.068,30.272,0.425
			c7.313,0.343,11.28,1.564,13.914,2.593c3.499,1.359,5.997,2.978,8.604,5.599c2.621,2.635,4.253,5.119,5.598,8.618
			c1.03,2.648,2.25,6.614,2.595,13.914c0.343,7.904,0.425,10.265,0.425,30.286c0,20.008-0.082,22.368-0.425,30.272
			c-0.33,7.314-1.551,11.28-2.595,13.915c-1.358,3.5-2.99,5.997-5.598,8.618c-2.622,2.621-5.105,4.24-8.604,5.599
			c-2.634,1.028-6.614,2.264-13.914,2.593c-7.904,0.343-10.265,0.439-30.272,0.439c-20.036,0-22.396-0.082-30.286-0.439
			c-7.314-0.329-11.266-1.564-13.915-2.593c-3.499-1.359-5.997-2.978-8.618-5.599c-2.607-2.635-4.24-5.119-5.599-8.618
			c-1.015-2.634-2.237-6.6-2.58-13.915c-0.344-7.904-0.439-10.264-0.439-30.272c0-20.021,0.096-22.396,0.439-30.286
			c0.329-7.314,1.55-11.266,2.58-13.914c1.372-3.5,2.992-5.983,5.599-8.618c2.635-2.621,5.119-4.24,8.618-5.599
			c2.649-1.029,6.614-2.25,13.915-2.593C397.698,79.512,400.058,79.444,420.094,79.444 M420.094,65.941
			c-20.351,0-22.917,0.082-30.904,0.439c-7.973,0.37-13.421,1.632-18.182,3.485c-4.954,1.921-9.112,4.474-13.284,8.646
			c-4.158,4.171-6.738,8.343-8.645,13.284c-1.839,4.762-3.115,10.209-3.472,18.182c-0.357,8-0.439,10.539-0.439,30.903
			c0,20.351,0.082,22.903,0.439,30.89c0.356,7.973,1.633,13.42,3.472,18.182c1.935,4.94,4.487,9.112,8.645,13.284
			c4.171,4.172,8.343,6.738,13.284,8.646c4.761,1.838,10.209,3.115,18.182,3.485c7.987,0.357,10.553,0.453,30.904,0.453
			c20.336,0,22.902-0.096,30.876-0.453c7.986-0.371,13.434-1.633,18.196-3.485c4.939-1.921,9.111-4.474,13.269-8.646
			c4.172-4.158,6.738-8.343,8.646-13.284c1.854-4.762,3.128-10.209,3.485-18.182c0.343-7.986,0.453-10.552,0.453-30.89
			c0-20.351-0.11-22.903-0.453-30.903c-0.357-7.987-1.632-13.434-3.485-18.182c-1.936-4.94-4.474-9.112-8.646-13.284
			c-4.157-4.158-8.342-6.724-13.269-8.646c-4.763-1.853-10.21-3.115-18.196-3.485C442.996,66.023,440.429,65.941,420.094,65.941"/>
		<path id="XMLID_1814_" fill="#FFFFFF" d="M420.094,102.388c-21.271,0-38.479,17.221-38.479,38.478
			c0,21.243,17.222,38.478,38.479,38.478c21.242,0,38.464-17.235,38.464-38.478C458.557,119.61,441.35,102.388,420.094,102.388
			 M420.094,165.842c-13.806,0-24.976-11.17-24.976-24.961c0-13.805,11.17-24.989,24.976-24.989
			c13.777,0,24.975,11.184,24.975,24.989C445.068,154.671,433.871,165.842,420.094,165.842"/>
		<path id="XMLID_1813_" fill="#FFFFFF" d="M469.069,100.865c0,4.981-4.021,9.002-8.988,9.002c-4.981,0-9.003-4.035-9.003-9.002
			c0-4.955,4.021-8.989,9.003-8.989C465.049,91.876,469.069,95.898,469.069,100.865"/>
	</g>
</g>
</svg>
