<?xml version="1.0" encoding="utf-8"?>
<!-- Generator: Adobe Illustrator 16.0.0, SVG Export Plug-In . SVG Version: 6.00 Build 0)  -->
<!DOCTYPE svg PUBLIC "-//W3C//DTD SVG 1.1//EN" "http://www.w3.org/Graphics/SVG/1.1/DTD/svg11.dtd">
<svg version="1.1" id="Calque_1" xmlns="http://www.w3.org/2000/svg" xmlns:xlink="http://www.w3.org/1999/xlink" x="0px" y="0px"
	 width="283.465px" height="283.465px" viewBox="279.213 0 283.465 283.465" enable-background="new 279.213 0 283.465 283.465"
	 xml:space="preserve">
<g id="XMLID_1750_">
	<path id="XMLID_1756_" fill="#222221" d="M509.862,275.459H333.744c-27.01,0-48.918-21.895-48.918-48.905V50.437
		c0-27.01,21.908-48.932,48.918-48.932h176.118c27.01,0,48.932,21.922,48.932,48.932v176.117
		C558.794,253.565,536.872,275.459,509.862,275.459z"/>
	<g id="XMLID_1751_">
		<g id="XMLID_1753_">
			<rect id="XMLID_1755_" x="359.696" y="107.965" fill="#FFFFFF" width="28.357" height="91.579"/>
			<path id="XMLID_1754_" fill="#FFFFFF" d="M373.723,62.169c9.256,0,16.765,7.564,16.765,16.902
				c0,9.324-7.508,16.888-16.765,16.888c-9.255,0-16.75-7.564-16.75-16.888C356.973,69.733,364.468,62.169,373.723,62.169z"/>
		</g>
		<path id="XMLID_1752_" fill="#FFFFFF" d="M433.369,151.465c0-12.886,5.928-20.546,17.273-20.546
			c10.425,0,15.444,7.372,15.444,20.546c0,13.189,0,48.079,0,48.079h28.221c0,0,0-33.446,0-57.995
			c0-24.535-13.904-36.389-33.31-36.389c-19.433,0-27.615,15.141-27.615,15.141v-12.336H406.18v91.579h27.203
			C433.369,199.544,433.369,165.575,433.369,151.465z"/>
	</g>
</g>
</svg>
