<?xml version="1.0" encoding="utf-8"?>
<!-- Generator: Adobe Illustrator 16.0.0, SVG Export Plug-In . SVG Version: 6.00 Build 0)  -->
<!DOCTYPE svg PUBLIC "-//W3C//DTD SVG 1.1//EN" "http://www.w3.org/Graphics/SVG/1.1/DTD/svg11.dtd">
<svg version="1.1" id="Calque_1" xmlns="http://www.w3.org/2000/svg" xmlns:xlink="http://www.w3.org/1999/xlink" x="0px" y="0px"
	 width="841.89px" height="595.281px" viewBox="0 0 841.89 595.281" enable-background="new 0 0 841.89 595.281"
	 xml:space="preserve">
<g id="Eco_Compteur">
	<path stroke="#FFFFFF" stroke-miterlimit="10" d="M456.917,261.287c0-14.401,10.658-24.552,25.123-24.552
		s25.061,10.214,25.061,24.552c0,14.402-10.531,24.68-25.061,24.68C467.576,285.967,456.917,275.625,456.917,261.287z
		 M498.283,261.287c0-10.278-6.916-16.939-16.18-16.939c-9.262,0-16.305,6.661-16.305,16.939s6.979,17.003,16.305,17.003
		C491.367,278.29,498.283,271.565,498.283,261.287z"/>
	<path stroke="#FFFFFF" stroke-miterlimit="10" d="M400.262,335.072c0-14.402,10.659-24.553,25.124-24.553
		c14.465,0,25.061,10.215,25.061,24.553c0,14.4-10.533,24.68-25.061,24.68C410.921,359.687,400.262,349.41,400.262,335.072z
		 M441.626,335.072c0-10.277-6.914-16.939-16.178-16.939c-9.262,0-16.304,6.662-16.304,16.939s6.979,17.002,16.304,17.002
		C434.712,352.074,441.626,345.349,441.626,335.072z"/>
	<path stroke="#FFFFFF" stroke-miterlimit="10" d="M387.51,264.206h-39.145c1.079,8.438,7.931,14.084,17.447,14.084
		c5.646,0,10.404-1.903,13.957-5.837l4.822,5.646c-4.377,5.076-11.039,7.804-19.033,7.804c-15.543,0-25.948-10.278-25.948-24.68
		c0-14.274,10.278-24.552,24.235-24.552s23.854,10.024,23.854,24.87C387.701,262.239,387.637,263.381,387.51,264.206z
		 M348.366,257.925h30.96c-0.888-8.121-6.979-13.831-15.48-13.831C355.472,244.094,349.317,249.677,348.366,257.925z"/>
	<path stroke="#FFFFFF" stroke-miterlimit="10" d="M399.945,261.287c0-14.401,10.658-24.552,25.503-24.552
		c8.629,0,15.861,3.553,19.668,10.278l-6.725,4.25c-3.109-4.758-7.805-6.915-13.133-6.915c-9.454,0-16.559,6.661-16.559,16.939
		c0,10.468,7.106,17.003,16.559,17.003c5.266,0,10.023-2.157,13.133-6.916l6.66,4.188c-3.805,6.725-11.039,10.405-19.666,10.405
		C410.54,285.967,399.945,275.625,399.945,261.287z"/>
	<path stroke="#FFFFFF" stroke-miterlimit="10" d="M340.816,335.072c0-14.402,10.658-24.553,25.504-24.553
		c8.628,0,15.861,3.553,19.667,10.277l-6.662,4.252c-3.109-4.76-7.804-6.916-13.133-6.916c-9.453,0-16.559,6.662-16.559,16.939
		c0,10.469,7.105,17.002,16.559,17.002c5.266,0,10.024-2.156,13.133-6.914l6.662,4.188c-3.807,6.725-11.039,10.404-19.667,10.404
		C351.475,359.687,340.816,349.41,340.816,335.072z"/>
	<path stroke="#FFFFFF" stroke-miterlimit="10" d="M542.882,331.392v27.787h-8.691v-26.771c0-9.453-4.568-14.086-12.498-14.086
		c-8.756,0-14.465,5.584-14.465,16.053v24.869h-8.756V332.47c0-9.453-4.568-14.084-12.498-14.084
		c-8.756,0-14.465,5.582-14.465,16.051v24.869h-8.756v-48.217h8.375v7.17c3.488-4.885,9.389-7.676,16.686-7.676
		c7.359,0,13.576,2.918,16.748,8.945c3.617-5.457,10.406-8.945,18.59-8.945C534.888,310.457,542.882,317.181,542.882,331.392z"/>
	<path stroke="#FFFFFF" stroke-miterlimit="10" d="M605.375,335.072c0,14.846-10.279,24.68-24.426,24.68
		c-6.852,0-12.816-2.666-16.813-7.805v24.934h-8.756V310.9h8.375v7.676c3.934-5.393,10.088-8.119,17.193-8.119
		C595.095,310.457,605.375,320.289,605.375,335.072z M596.556,335.072c0-10.215-6.98-16.939-16.307-16.939
		c-9.199,0-16.178,6.725-16.178,16.939c0,10.277,6.979,17.002,16.178,17.002C589.513,352.074,596.556,345.349,596.556,335.072z"/>
	<path stroke="#FFFFFF" stroke-miterlimit="10" d="M649.785,356.326c-2.666,2.283-6.662,3.361-10.533,3.361
		c-9.77,0-15.289-5.393-15.289-15.1v-26.52h-8.184V310.9h8.184v-10.531h8.756V310.9h13.83v7.168h-13.83v26.139
		c0,5.203,2.729,8.121,7.549,8.121c2.539,0,5.012-0.824,6.852-2.283L649.785,356.326z"/>
	<path stroke="#FFFFFF" stroke-miterlimit="10" d="M707.96,337.927h-39.143c1.078,8.438,7.93,14.084,17.445,14.084
		c5.646,0,10.404-1.904,13.959-5.838l4.82,5.646c-4.377,5.076-11.039,7.805-19.033,7.805c-15.543,0-25.947-10.277-25.947-24.68
		c0-14.275,10.277-24.553,24.234-24.553c13.959,0,23.855,10.023,23.855,24.869C708.152,336.023,708.025,337.166,707.96,337.927z
		 M668.816,331.646h30.961c-0.889-8.121-6.979-13.83-15.48-13.83C675.923,317.816,669.705,323.462,668.816,331.646z"/>
	<path stroke="#FFFFFF" stroke-miterlimit="10" d="M766.583,310.9v48.217h-8.313v-7.297c-3.553,5.014-9.58,7.805-16.367,7.805
		c-12.498,0-20.746-6.852-20.746-21v-27.789h8.756v26.773c0,9.453,4.758,14.211,13.006,14.211c9.072,0,14.908-5.646,14.908-16.051
		v-24.934h8.756V310.9z"/>
	<path stroke="#FFFFFF" stroke-miterlimit="10" d="M805.41,310.457v8.5c-0.697-0.063-1.396-0.063-2.029-0.063
		c-9.391,0-15.227,5.709-15.227,16.305v24.045h-8.756v-48.217h8.375v8.121C790.88,313.375,796.908,310.457,805.41,310.457z"/>
	<g>
		<path fill="#FFFFFF" d="M162.795,343.509c-33.688-32.482-26.392-82.413,6.09-116.101c32.483-33.688,98.21-8.819,131.898,23.728
			c33.688,32.546,0.571,83.174-31.976,116.861C236.262,401.687,196.483,376.056,162.795,343.509z"/>
		<path fill="#FFFFFF" d="M118.258,372.82c-39.145,24.869-85.521,6.217-110.391-32.926c-24.87-39.145,14.402-96.561,53.546-121.431
			c39.144-24.87,80.255,18.842,105.125,57.987C191.408,315.595,157.402,347.951,118.258,372.82z"/>
		<path stroke="#FFFFFF" stroke-miterlimit="10" d="M300.847,251.136c-33.688-32.546-99.479-57.416-131.962-23.728
			c-25.504,26.456-35.528,62.872-22.332,93.071c3.997-1.713,8.311-2.729,12.942-2.729c17.891,0,32.419,14.529,32.419,32.42
			c0,5.455-1.333,10.594-3.743,15.1c21.507,15.605,43.966,24.234,64.648,14.592c-11.42-5.012-19.414-16.432-19.414-29.691
			c0-17.891,14.528-32.42,32.419-32.42c12.879,0,24.045,7.551,29.247,18.463C314.805,307.156,325.083,274.483,300.847,251.136z
			 M237.277,232.04c5.836,0,10.595,4.695,10.658,10.532c0,5.836-4.695,10.595-10.532,10.658
			c-5.836,0.063-10.595-4.695-10.658-10.532C226.746,236.862,231.44,232.104,237.277,232.04z M208.538,365.714l-5.012-5.328
			c0.063-0.064,6.027-5.711,10.722-13.387c4.061-6.535,8.058-15.988,4.124-23.664c-8.184-15.861-27.154-16.623-27.407-16.623
			l0.253-7.295c0.952,0,23.474,0.951,33.625,20.617C235.311,340.148,209.679,364.699,208.538,365.714z M251.679,299.669
			c-27.281-5.455-32.546-23.473-33.244-33.561c-11.673,8.184-16.622,22.015-16.686,22.205l-6.916-2.411
			c0.317-0.888,7.55-21.063,25.885-29.438l5.139,3.933c-0.19,1.015-3.997,25.885,27.344,32.166L251.679,299.669z"/>
		<path stroke="#FFFFFF" stroke-miterlimit="10" d="M166.538,276.387c-24.87-39.145-66.044-82.92-105.188-57.987
			c-39.208,24.87-78.416,82.412-53.546,121.557c10.341,16.242,24.298,28.93,39.969,36.48c17.891-24.744,20.492-53.609,20.492-53.928
			l7.296,0.572c-0.127,1.395-2.728,30.389-20.873,56.273c14.909,5.582,30.897,6.535,46.504,1.586
			C100.557,347,81.524,324.414,81.271,324.16l5.52-4.758c0.952,1.078,20.111,23.791,21.571,58.748
			c3.299-1.459,6.598-3.236,9.833-5.266C157.466,348.013,191.471,315.595,166.538,276.387z M95.482,242.572
			c5.836,0,10.595,4.695,10.658,10.531c0,5.837-4.695,10.595-10.531,10.659c-5.837,0.063-10.595-4.695-10.659-10.532
			C84.887,247.33,89.645,242.572,95.482,242.572z M55.894,316.863l-7.106,1.777c-0.253-1.078-6.154-26.266,28.74-50.311l4.124,6.027
			C50.881,295.61,55.83,316.673,55.894,316.863z M118.131,317.371c-14.084-5.012-23.474-12.434-27.978-21.951
			c-1.015-2.157-1.713-4.25-2.157-6.217c-5.012,9.581-6.091,16.178-6.091,16.305l-7.232-1.078
			c0.063-0.572,2.157-13.895,14.275-30.58l6.408,3.362c-0.317,0.888-7.042,21.698,25.187,33.245L118.131,317.371z"/>
		<path fill="#FFFFFF" d="M150.297,253.547c-10.849,21.697-12.942,45.87-3.743,66.933c3.997-1.713,8.311-2.729,12.942-2.729
			c4.314,0,8.375,0.824,12.117,2.348c5.457-13.449,4.949-28.042-5.012-43.776C161.716,268.773,156.26,260.97,150.297,253.547z"/>
		<g>
			<path stroke="#FFFFFF" stroke-miterlimit="10" d="M265.763,325.873c-13.387,0-24.299,10.912-24.299,24.299
				c0,12.055,8.882,22.141,20.429,23.98c2.347-1.775,4.631-3.807,6.852-6.154c7.042-7.295,14.084-15.352,20.492-23.918
				C286.572,333.613,277.056,325.873,265.763,325.873z"/>
		</g>
		<g>
			<path stroke="#FFFFFF" stroke-miterlimit="10" d="M159.496,325.873c-3.299,0-6.408,0.635-9.263,1.84
				c3.299,5.582,7.423,10.912,12.498,15.797c6.091,5.9,12.435,11.547,18.843,16.686c1.396-3.045,2.157-6.471,2.157-10.023
				C183.794,336.785,172.946,325.873,159.496,325.873z"/>
		</g>
		<path fill="#FFFFFF" d="M167.934,327.394c-2.601-0.951-5.456-1.521-8.438-1.521c-3.299,0-6.408,0.635-9.263,1.84
			c2.411,4.188,5.393,8.184,8.818,11.99C162.541,335.707,165.523,331.646,167.934,327.394z"/>
	</g>
</g>
</svg>
