<?xml version="1.0" encoding="utf-8"?>
<!-- Generator: Adobe Illustrator 16.0.0, SVG Export Plug-In . SVG Version: 6.00 Build 0)  -->
<!DOCTYPE svg PUBLIC "-//W3C//DTD SVG 1.1//EN" "http://www.w3.org/Graphics/SVG/1.1/DTD/svg11.dtd">
<svg version="1.1" id="Calque_1" xmlns="http://www.w3.org/2000/svg" xmlns:xlink="http://www.w3.org/1999/xlink" x="0px" y="0px"
	 width="88px" height="31px" viewBox="0 0 88 31" enable-background="new 0 0 88 31" xml:space="preserve">
<g>
	<g id="logo-1_1_">
		<path id="Tracé_1" d="M5.587,22.2c0.717,2.611,2.662,3.918,5.834,3.918c1.793,0.113,3.527-0.666,4.632-2.084l4.3,2.5
			c-2.017,2.962-5.436,4.653-9.014,4.459c-3.059,0.141-6.04-0.99-8.236-3.124c-2.071-2.089-3.192-4.937-3.1-7.876
			c-0.089-2.926,1.016-5.762,3.062-7.855c2.062-2.106,4.915-3.247,7.86-3.145c2.843-0.08,5.581,1.075,7.508,3.166
			c1.977,2.121,3.039,4.936,2.958,7.834c-0.004,0.74-0.073,1.479-0.208,2.208L5.587,22.2L5.587,22.2L5.587,22.2z M5.503,18.034
			h10.55c-0.205-1.256-0.878-2.387-1.883-3.167c-0.94-0.69-2.081-1.055-3.247-1.04c-1.277-0.05-2.534,0.34-3.558,1.105
			c-0.966,0.782-1.625,1.879-1.86,3.1l0,0L5.503,18.034z M62.313,9.577h5.336v20.832h-5.336v-2.456
			c-1.627,2.04-4.137,3.172-6.742,3.04c-2.724,0.049-5.326-1.119-7.101-3.186c-1.967-2.119-3.026-4.924-2.952-7.814
			c-0.073-2.891,0.988-5.694,2.957-7.812c1.789-2.044,4.379-3.208,7.096-3.188c2.605-0.131,5.116,1.001,6.742,3.042V9.577z
			 M52.469,24.224c1.075,1.1,2.563,1.697,4.101,1.646c1.541,0.046,3.031-0.55,4.117-1.646c1.1-1.127,1.689-2.656,1.629-4.23
			c0.059-1.574-0.533-3.104-1.635-4.229c-1.085-1.095-2.576-1.692-4.117-1.647c-1.537-0.05-3.024,0.547-4.1,1.647
			c-1.087,1.133-1.667,2.66-1.607,4.229C50.798,21.563,51.38,23.091,52.469,24.224z M72.489,30.409V9.577h5.338v20.832H72.489z
			 M82.667,30.409V-0.007h5.336v30.416H82.667z M75.14,7.077c-0.87,0.007-1.703-0.348-2.301-0.979
			c-0.627-0.604-0.979-1.441-0.97-2.312c-0.006-0.877,0.344-1.719,0.97-2.334c0.592-0.643,1.427-1.005,2.301-1
			c0.883-0.005,1.729,0.357,2.336,1c0.625,0.615,0.976,1.457,0.971,2.334c0.006,0.871-0.344,1.707-0.971,2.312
			C76.866,6.734,76.02,7.089,75.14,7.077z"/>
		<path id="Tracé_2" fill="#00FFDA" d="M28.587,9.57H21.72L30.107,20l-8.376,10.417H28.6L36.974,20L28.587,9.57z"/>
		<path id="Tracé_3" d="M33.54,24.27l4.94,6.146h6.868L36.974,20l-3.434,4.271V24.27z M38.491,9.57l-4.95,6.16L36.974,20
			l8.383-10.43H38.491z"/>
	</g>
</g>
</svg>
