<?xml version="1.0" encoding="utf-8"?>
<!-- Generator: Adobe Illustrator 16.0.0, SVG Export Plug-In . SVG Version: 6.00 Build 0)  -->
<!DOCTYPE svg PUBLIC "-//W3C//DTD SVG 1.1//EN" "http://www.w3.org/Graphics/SVG/1.1/DTD/svg11.dtd">
<svg version="1.1" id="Calque_1" xmlns="http://www.w3.org/2000/svg" xmlns:xlink="http://www.w3.org/1999/xlink" x="0px" y="0px"
	 width="841.89px" height="595.281px" viewBox="0 0 841.89 595.281" enable-background="new 0 0 841.89 595.281"
	 xml:space="preserve">
<g>
	<path d="M446.33,271.068v22.828h51.773l-3.105,14.792h-48.576v32.689h-23.65v-85.194h83.367l-3.195,14.884H446.33z M733.23,341.378
		h-27.121l-8.125-17.258h-45.475l-7.852,17.258h-17.076l40.086-85.194c0,0,10.684,0,15.98,0c6.025,0,8.309,2.466,11.414,8.857
		C697.984,271.068,733.23,341.378,733.23,341.378z M690.953,309.328l-16.07-33.967l-15.523,33.967H690.953z M411.083,341.378
		h-27.119l-8.127-17.258h-45.473l-7.853,17.258h-17.075l40.177-85.194c0,0,10.683,0,15.979,0c6.027,0,8.31,2.466,11.414,8.857
		C375.746,271.068,411.083,341.378,411.083,341.378z M368.715,309.328l-16.071-33.967l-15.523,33.967H368.715z M255.671,344.117
		c30.498,0,44.56-11.139,44.56-27.393c0-14.152-12.784-21.367-40.816-29.037c-16.71-4.565-27.119-5.479-27.119-11.14
		c0-5.388,9.77-8.31,24.745-7.579c18.81,0.913,30.772,8.857,30.772,8.857l7.396-11.779c0,0-16.893-12.51-43.738-12.51
		c-29.311,0-44.743,8.949-44.743,25.385c0,16.253,17.532,21.824,43.099,29.129c15.706,4.473,24.836,5.295,24.836,11.322
		c0,4.656-4.748,10.408-25.658,9.404c-20.088-1.004-37.529-12.6-37.529-12.6l-8.949,10.865
		C202.62,326.951,221.704,344.117,255.671,344.117z M824.083,256.185v50.86c0,0-49.947-39.811-54.057-43.098
		c-7.395-5.844-10.773-7.762-18.992-7.762c-3.469,0-6.117,0-6.117,0v85.194h17.531V291.34c0,0,49.49,39.537,53.6,42.734
		c7.396,5.844,11.141,7.305,19.357,7.305c3.471,0,6.119,0,6.119,0v-85.194H824.083z M618.542,341.378c0,0-6.117,0-15.98,0
		c-9.496,0-15.248-6.574-18.719-11.141c-3.834-5.021-13.422-17.715-13.422-17.715s-1.096,0-1.645,0c-6.391,0-24.014,0-24.014,0
		h-0.273v28.855h-23.65v-85.194h23.924c0,0,17.531,0,24.014,0c18.354,0,44.744,1.918,44.744,28.215l0,0
		c0,15.25-8.949,22.279-19.998,25.477L618.542,341.378z M587.861,284.4L587.861,284.4c0-8.948-5.66-13.332-18.17-13.332h-24.928
		l-0.273-0.183v27.028l0.273-0.183h24.928C582.201,297.731,587.861,293.349,587.861,284.4z"/>
	<path d="M159.795,335.535h-1.918c-17.532,24.014-45.838,39.629-77.797,39.629s-60.357-15.615-77.797-39.629H0.365
		c14.153,29.768,44.56,50.404,79.715,50.404C115.235,385.847,145.642,365.302,159.795,335.535z"/>
	<path id="_x3C_Tracé_x3E__7_" d="M143.268,345.031c4.292-4.748,8.126-11.322,8.948-16.07
		c4.109-21.732-16.071-32.781-39.903-41.091c-18.627-6.483-33.968-10.957-47.025-14.975c-20.728-6.392-24.289-12.509-24.106-19.084
		c0.183-7.67,8.31-17.349,17.532-23.102c0,0-17.349-0.091-34.972,13.058c-10.318,7.761-14.609,15.797-16.162,23.102
		c-7.396,36.342,64.375,50.77,91.951,59.717c15.066,4.932,17.075,11.506,16.984,16.711c-0.274,12.145-17.44,23.102-17.532,23.102
		C112.952,366.125,131.854,357.814,143.268,345.031"/>
	<path d="M159.795,259.746h-1.918c-17.532-24.015-45.838-39.629-77.797-39.629s-60.357,15.614-77.797,39.629H0.365
		c14.153-29.768,44.56-50.313,79.715-50.313S145.642,229.979,159.795,259.746z"/>
</g>
</svg>
