<?xml version="1.0" encoding="UTF-8"?><svg id="uuid-abf6f4ed-336e-49fc-b66a-9d81da89155d" xmlns="http://www.w3.org/2000/svg" viewBox="0 0 350 100"><defs><style>.uuid-c0f3fc15-7d2b-43a7-bbaa-bbfcf9aab8ad{fill:#fff;}</style></defs><g><path class="uuid-c0f3fc15-7d2b-43a7-bbaa-bbfcf9aab8ad" d="M112.5,40.6c0,1.6-.6,3-1.7,4.2-1.2,1.2-2.6,1.8-4.2,1.8h-6.2l-2-4.1h8.1c.5,0,1-.2,1.4-.6,.4-.4,.6-.9,.6-1.4s-.2-1.1-.6-1.5c-.4-.4-.9-.6-1.4-.6h-10.2v16.5h-4v-20.7h14.3c1.6,0,2.9,.6,4.1,1.8,1.2,1.2,1.8,2.6,1.8,4.2v.3"/><path class="uuid-c0f3fc15-7d2b-43a7-bbaa-bbfcf9aab8ad" d="M120.6,54.9h-4v-20.6h4v20.6Zm16.2,0h-4v-8.3h-8.1l-2-4.1h10.1v-8.3h4v20.6Z"/><path class="uuid-c0f3fc15-7d2b-43a7-bbaa-bbfcf9aab8ad" d="M161.1,48.9c0,1.6-.6,3-1.8,4.2-1.2,1.2-2.6,1.8-4.1,1.8h-8.4c-1.6,0-3-.6-4.2-1.8-1.2-1.2-1.8-2.6-1.8-4.2v-8.6c0-1.6,.6-3,1.8-4.2,1.2-1.2,2.6-1.8,4.2-1.8h8.4c1.6,0,2.9,.6,4.1,1.8,1.2,1.2,1.8,2.6,1.8,4.2v8.6m-4-.1v-8.3c0-.5-.2-1-.6-1.4-.4-.4-.9-.6-1.4-.6h-8.2c-.5,0-1,.2-1.4,.6-.4,.4-.6,.9-.6,1.4v8.3c0,.6,.2,1,.6,1.4s.9,.6,1.4,.6h8.2c.5,0,1-.2,1.4-.6,.4-.4,.6-.9,.6-1.4h0Z"/><polyline class="uuid-c0f3fc15-7d2b-43a7-bbaa-bbfcf9aab8ad" points="165.1 34.2 185.3 34.2 185.3 38.4 177.3 38.4 177.3 54.9 173.2 54.9 173.2 38.4 165.1 38.4 165.1 34.2"/><path class="uuid-c0f3fc15-7d2b-43a7-bbaa-bbfcf9aab8ad" d="M209.6,48.9c0,1.6-.6,3-1.7,4.2-1.2,1.2-2.6,1.8-4.2,1.8h-8.4c-1.6,0-3-.6-4.2-1.8-1.2-1.2-1.8-2.6-1.8-4.2v-8.6c0-1.6,.6-3,1.8-4.2,1.2-1.2,2.6-1.8,4.2-1.8h8.4c1.6,0,3,.6,4.1,1.8,1.2,1.2,1.8,2.6,1.8,4.2v8.6m-4-.1v-8.3c0-.5-.2-1-.6-1.4-.4-.4-.9-.6-1.4-.6h-8.2c-.5,0-1,.2-1.4,.6-.4,.4-.6,.9-.6,1.4v8.3c0,.6,.2,1,.6,1.4,.4,.4,.9,.6,1.4,.6h8.2c.5,0,1-.2,1.4-.6,.4-.4,.6-.9,.6-1.4Z"/><path class="uuid-c0f3fc15-7d2b-43a7-bbaa-bbfcf9aab8ad" d="M233.9,54.9h-4v-14.5c0-.5-.2-1-.6-1.4-.4-.4-.9-.6-1.4-.6h-10.2v16.5h-4v-20.6h14.3c1.6,0,3,.6,4.2,1.8,1.2,1.2,1.8,2.6,1.8,4.2v14.6"/><rect class="uuid-c0f3fc15-7d2b-43a7-bbaa-bbfcf9aab8ad" x="238" y="34.2" width="4" height="20.6"/><path class="uuid-c0f3fc15-7d2b-43a7-bbaa-bbfcf9aab8ad" d="M266.3,54.9h-14.3c-1.6,0-3-.6-4.2-1.8-1.2-1.2-1.8-2.6-1.8-4.2v-8.6c0-1.6,.6-3,1.8-4.2,1.2-1.2,2.6-1.8,4.2-1.8h14.3v4.1h-14.2c-.5,0-1,.2-1.4,.6-.4,.4-.6,.9-.6,1.4v8.3c0,.6,.2,1,.6,1.4,.4,.4,.9,.6,1.4,.6h14.2v4.1"/><path class="uuid-c0f3fc15-7d2b-43a7-bbaa-bbfcf9aab8ad" d="M272.1,36c1.2-1.2,2.6-1.8,4.1-1.8h14.3v4.1h-14.2c-.5,0-1,.2-1.4,.6-.4,.4-.6,.9-.6,1.4v2.1h16.2v6.4c0,1.6-.6,3-1.8,4.2s-2.6,1.8-4.1,1.8h-14.3v-4.1h14.2c.5,0,1-.2,1.4-.6,.4-.4,.6-.9,.6-1.4v-2.1h-16.2v-6.4c0-1.6,.6-3,1.8-4.2"/><polyline class="uuid-c0f3fc15-7d2b-43a7-bbaa-bbfcf9aab8ad" points="165.1 34.2 185.3 34.2 185.3 38.4 177.3 38.4 177.3 54.9 173.2 54.9 173.2 38.4 165.1 38.4 165.1 34.2"/><path class="uuid-c0f3fc15-7d2b-43a7-bbaa-bbfcf9aab8ad" d="M140.8,54.2c-4.9,4.8-10.6,9.4-16.9,13.8-16.2,11.1-33,17.2-45.5,17.9,13.4,.2,32.9-6.6,51.8-19.5,4.7-3.3,9.2-6.7,13.2-10.2-.8-.4-1.6-.9-2.3-1.7-.1-.1-.2-.2-.3-.3"/><path class="uuid-c0f3fc15-7d2b-43a7-bbaa-bbfcf9aab8ad" d="M161.7,35.8c7.1-10.7,9.4-20.6,5.1-26.8-6.9-10-28.8-7.6-52.3,4.6,19.6-8.6,37.2-9.3,43.3-.4,3.3,4.8,2.8,11.6-.8,19.3,1.3,.3,2.6,1.1,3.6,2.2,.4,.4,.7,.8,1,1.2"/><path class="uuid-c0f3fc15-7d2b-43a7-bbaa-bbfcf9aab8ad" d="M161.1,48.9c0,1.6-.6,3-1.8,4.2-1.2,1.2-2.6,1.8-4.1,1.8h-8.4c-1.6,0-3-.6-4.2-1.8-1.2-1.2-1.8-2.6-1.8-4.2v-8.6c0-1.6,.6-3,1.8-4.2,1.2-1.2,2.6-1.8,4.2-1.8h8.4c1.6,0,2.9,.6,4.1,1.8,1.2,1.2,1.8,2.6,1.8,4.2v8.6m-4-.1v-8.3c0-.5-.2-1-.6-1.4-.4-.4-.9-.6-1.4-.6h-8.2c-.5,0-1,.2-1.4,.6-.4,.4-.6,.9-.6,1.4v8.3c0,.6,.2,1,.6,1.4s.9,.6,1.4,.6h8.2c.5,0,1-.2,1.4-.6,.4-.4,.6-.9,.6-1.4h0Z"/><path class="uuid-c0f3fc15-7d2b-43a7-bbaa-bbfcf9aab8ad" d="M83.8,36.4c0-1.2,1-2.2,2.2-2.2s2.1,1,2.1,2.2-1,2.2-2.1,2.2-2.2-1-2.2-2.2"/><path class="uuid-c0f3fc15-7d2b-43a7-bbaa-bbfcf9aab8ad" d="M83.8,41.6c0-1.2,1-2.2,2.2-2.2s2.1,1,2.1,2.2-1,2.2-2.1,2.2-2.2-1-2.2-2.2"/><path class="uuid-c0f3fc15-7d2b-43a7-bbaa-bbfcf9aab8ad" d="M83.8,46.8c0-1.2,1-2.2,2.2-2.2s2.1,1,2.1,2.2-1,2.2-2.1,2.2-2.2-1-2.2-2.2"/><path class="uuid-c0f3fc15-7d2b-43a7-bbaa-bbfcf9aab8ad" d="M78.6,36.4c0-1.2,1-2.2,2.2-2.2s2.1,1,2.1,2.2-1,2.2-2.1,2.2-2.2-1-2.2-2.2"/><path class="uuid-c0f3fc15-7d2b-43a7-bbaa-bbfcf9aab8ad" d="M78.6,41.6c0-1.2,1-2.2,2.2-2.2s2.2,1,2.2,2.2-1,2.1-2.2,2.1-2.2-1-2.2-2.1"/><path class="uuid-c0f3fc15-7d2b-43a7-bbaa-bbfcf9aab8ad" d="M78.6,46.8c0-1.2,1-2.2,2.2-2.2s2.2,1,2.2,2.2-1,2.2-2.2,2.2-2.2-1-2.2-2.2"/><path class="uuid-c0f3fc15-7d2b-43a7-bbaa-bbfcf9aab8ad" d="M73.4,31.2c0-1.2,1-2.2,2.2-2.2s2.2,1,2.2,2.2-1,2.2-2.2,2.2-2.2-1-2.2-2.2"/><path class="uuid-c0f3fc15-7d2b-43a7-bbaa-bbfcf9aab8ad" d="M73.4,36.4c0-1.2,1-2.2,2.2-2.2s2.2,1,2.2,2.2-1,2.2-2.2,2.2-2.2-1-2.2-2.2"/><path class="uuid-c0f3fc15-7d2b-43a7-bbaa-bbfcf9aab8ad" d="M73.4,41.6c0-1.2,1-2.2,2.2-2.2s2.2,1,2.2,2.2-1,2.2-2.2,2.2-2.2-1-2.2-2.2"/><path class="uuid-c0f3fc15-7d2b-43a7-bbaa-bbfcf9aab8ad" d="M68.3,31.2c0-1.2,1-2.2,2.2-2.2s2.2,1,2.2,2.2-1,2.2-2.2,2.2-2.2-1-2.2-2.2"/><path class="uuid-c0f3fc15-7d2b-43a7-bbaa-bbfcf9aab8ad" d="M68.3,36.4c0-1.2,1-2.2,2.2-2.2s2.2,1,2.2,2.2-1,2.2-2.2,2.2-2.2-1-2.2-2.2"/><path class="uuid-c0f3fc15-7d2b-43a7-bbaa-bbfcf9aab8ad" d="M63,31.2c0-1.2,1-2.2,2.2-2.2s2.2,1,2.2,2.2-1,2.2-2.2,2.2-2.2-1-2.2-2.2"/><path class="uuid-c0f3fc15-7d2b-43a7-bbaa-bbfcf9aab8ad" d="M63,36.4c0-1.2,1-2.2,2.2-2.2s2.2,1,2.2,2.2-1,2.2-2.2,2.2-2.2-1-2.2-2.2"/><g><path class="uuid-c0f3fc15-7d2b-43a7-bbaa-bbfcf9aab8ad" d="M196.6,66.9c0,.9-.3,1.6-1,2.3-.6,.7-1.4,1-2.3,1h-7.9v-11.2h7.9c.9,0,1.6,.3,2.3,1,.6,.7,1,1.4,1,2.3s-.3,1.7-.9,2.3c.6,.6,.9,1.4,.9,2.2v.2m-2.2,0c0-.3-.1-.6-.3-.8-.2-.2-.5-.3-.8-.3h-3.4l-1.1-2.2h4.5c.3,0,.5-.1,.8-.3,.2-.2,.3-.5,.3-.8s-.1-.6-.3-.8c-.2-.2-.5-.3-.8-.3h-5.6v6.7h5.6c.3,0,.6-.1,.8-.3s.3-.5,.3-.8h0Z"/><path class="uuid-c0f3fc15-7d2b-43a7-bbaa-bbfcf9aab8ad" d="M207.5,61.5c-.2-.2-.5-.3-.8-.3h-5.6v9h-2.2v-11.2h7.9c.9,0,1.6,.3,2.3,1,.6,.7,1,1.4,1,2.3v.2c0,.9-.3,1.6-1,2.3-.6,.7-1.4,1-2.3,1h-1.2l2.2,4.5h-2.2l-3.4-6.7h4.5c.3,0,.5-.1,.8-.3s.3-.5,.3-.8-.1-.6-.3-.8"/><path class="uuid-c0f3fc15-7d2b-43a7-bbaa-bbfcf9aab8ad" d="M223.4,70.2h-7.9c-.9,0-1.6-.3-2.3-1-.6-.6-1-1.4-1-2.3v-8h11.2v2.3h-9v5.6c0,.3,.1,.6,.3,.8,.2,.2,.5,.3,.8,.3h7.9v2.2m0-4.5h-6.7l-1.1-2.2h7.8v2.2Z"/><polyline class="uuid-c0f3fc15-7d2b-43a7-bbaa-bbfcf9aab8ad" points="225.7 58.9 236.9 58.9 236.9 61.2 232.4 61.2 232.4 70.2 230.2 70.2 230.2 61.2 225.7 61.2 225.7 58.9"/><path class="uuid-c0f3fc15-7d2b-43a7-bbaa-bbfcf9aab8ad" d="M250.4,70.2h-2.2v-4.5h-4.5l-1.1-2.2h5.6v-1.1c0-.3-.1-.6-.3-.8s-.5-.3-.8-.3h-4.5c-.3,0-.6,.1-.8,.3s-.3,.5-.3,.8v7.9h-2.2v-8c0-.9,.3-1.7,1-2.3,.7-.6,1.4-1,2.3-1h4.7c.9,0,1.6,.3,2.3,1,.6,.7,1,1.4,1,2.3v8"/><path class="uuid-c0f3fc15-7d2b-43a7-bbaa-bbfcf9aab8ad" d="M263.8,66.9c0,.9-.3,1.6-1,2.3-.6,.7-1.4,1-2.3,1h-4.6c-.9,0-1.7-.3-2.3-1-.7-.7-1-1.4-1-2.3v-4.7c0-.9,.3-1.7,1-2.3,.7-.6,1.4-1,2.3-1h7.9v2.3h-7.9c-.3,0-.5,.1-.8,.3s-.3,.5-.3,.8v4.5c0,.3,.1,.6,.3,.8s.5,.3,.8,.3h4.5c.3,0,.5-.1,.8-.3s.3-.5,.3-.8v-1.1h-4.5l-1.1-2.2h7.8v3.5"/><path class="uuid-c0f3fc15-7d2b-43a7-bbaa-bbfcf9aab8ad" d="M277.2,70.2h-2.2v-7.9c0-.3-.1-.6-.3-.8s-.5-.3-.8-.3h-5.6v9h-2.2v-11.2h7.9c.9,0,1.7,.3,2.3,1,.6,.6,1,1.4,1,2.3v8"/><path class="uuid-c0f3fc15-7d2b-43a7-bbaa-bbfcf9aab8ad" d="M290.7,70.2h-7.9c-.9,0-1.6-.3-2.3-1-.7-.6-1-1.4-1-2.3v-8h11.2v2.3h-9v5.6c0,.3,.1,.6,.3,.8s.5,.3,.8,.3h7.9v2.2m0-4.5h-6.7l-1.1-2.2h7.9v2.2Z"/></g></g><g><path class="uuid-c0f3fc15-7d2b-43a7-bbaa-bbfcf9aab8ad" d="M125.5,93.4l-.7,4.1h-1.5l1.9-10.5c.9,0,1.6-.1,2.1-.1,2.6,0,4,1,4,3.1s-.4,2.1-1.2,2.8-1.9,1-3.1,1-1,0-1.4-.2h0Zm.9-5.2l-.7,3.9c.3,.1,.6,.2,1.2,.2,.9,0,1.5-.2,2.1-.6,.5-.4,.8-1,.8-1.7,0-1.3-.7-1.9-2.1-1.9s-.8,0-1.3,.2h0Z"/><path class="uuid-c0f3fc15-7d2b-43a7-bbaa-bbfcf9aab8ad" d="M136.2,97.4l.9-4.8c0-.2,0-.4,0-.5,0-.9-.4-1.3-1.3-1.3s-.7,0-1.1,.3c-.4,.2-.7,.4-.9,.7l-1,5.7h-1.4l1.9-10.9h1.4l-.6,4c.2-.3,.6-.5,1-.7,.4-.2,.9-.3,1.3-.3,.7,0,1.2,.2,1.6,.6,.4,.4,.6,.9,.6,1.6s0,.5,0,.8l-.9,4.8h-1.4Z"/><path class="uuid-c0f3fc15-7d2b-43a7-bbaa-bbfcf9aab8ad" d="M139.6,94.6c0-1.4,.4-2.6,1.2-3.5,.8-1,1.8-1.5,3.1-1.5s1.7,.2,2.1,.8c.5,.5,.7,1.2,.7,2.1s-.2,1.5-.4,2.3-.8,1.5-1.5,2c-.7,.5-1.5,.8-2.4,.8s-1.6-.3-2.1-.8c-.5-.5-.7-1.3-.7-2.2h0Zm1.4,0c0,1.3,.5,1.9,1.6,1.9s1.5-.4,1.9-1.2,.7-1.7,.7-2.7-.5-1.9-1.6-1.9-1,.2-1.5,.6-.7,.9-.9,1.5c-.2,.6-.3,1.2-.3,1.7h0Z"/><path class="uuid-c0f3fc15-7d2b-43a7-bbaa-bbfcf9aab8ad" d="M149.3,90.8h-.9l.2-1.1h.9l.3-1.6,1.6-.6-.5,2.2h2.1l-.2,1.1h-2.1l-.8,3.8c0,.3,0,.5,0,.7,0,.7,.4,1.1,1.1,1.1s.7,0,1.1-.3v1.2c-.4,.1-1.1,.2-1.9,.2s-1-.2-1.3-.5-.5-.8-.5-1.4,0-.3,0-.5l.9-4.4h0Z"/><path class="uuid-c0f3fc15-7d2b-43a7-bbaa-bbfcf9aab8ad" d="M153.7,94.6c0-1.4,.4-2.6,1.2-3.5s1.8-1.5,3.1-1.5,1.7,.2,2.1,.8c.5,.5,.7,1.2,.7,2.1s-.2,1.5-.4,2.3-.8,1.5-1.5,2c-.7,.5-1.5,.8-2.4,.8s-1.6-.3-2.1-.8c-.5-.5-.7-1.3-.7-2.2h0Zm1.4,0c0,1.3,.5,1.9,1.6,1.9s1.5-.4,1.9-1.2,.7-1.7,.7-2.7-.5-1.9-1.6-1.9-1,.2-1.5,.6-.7,.9-.9,1.5-.3,1.2-.3,1.7h0Z"/><path class="uuid-c0f3fc15-7d2b-43a7-bbaa-bbfcf9aab8ad" d="M166.3,97.4l.8-4.5c0-.4,.1-.7,.1-1,0-.8-.4-1.2-1.3-1.2s-.7,0-1.1,.3c-.4,.2-.7,.4-.9,.7l-1,5.7h-1.4l1-5.8c0-.1,0-.3,0-.5,0-.5,0-.9-.2-1.3l1.3-.3c.1,.7,.2,1.1,.2,1.1,.6-.8,1.4-1.1,2.5-1.1s2.1,.7,2.1,2.1,0,.6,0,.9l-.8,4.8h-1.5Z"/><path class="uuid-c0f3fc15-7d2b-43a7-bbaa-bbfcf9aab8ad" d="M170.1,97.4l1.2-6.6h-1l.2-1.1h2.3l-1.4,7.7h-1.4Zm2.2-10.7c.3,0,.5,0,.7,.3s.3,.4,.3,.7,0,.5-.3,.7-.4,.3-.7,.3-.5,0-.7-.3-.3-.4-.3-.7,0-.5,.3-.7,.4-.3,.7-.3Z"/><path class="uuid-c0f3fc15-7d2b-43a7-bbaa-bbfcf9aab8ad" d="M180.3,90l-.2,1.2c-.3-.3-.8-.4-1.4-.4-.9,0-1.6,.4-2.1,1.1-.5,.7-.8,1.6-.8,2.6s.2,1.1,.5,1.5c.4,.4,.8,.6,1.2,.6,.7,0,1.4-.2,2-.6l-.2,1.4c-.6,.3-1.3,.4-2.1,.4s-1.7-.3-2.2-.8-.8-1.3-.8-2.2c0-1.5,.4-2.7,1.2-3.6,.8-.9,1.8-1.4,3.1-1.4s1.3,.1,1.7,.4h0Z"/><path class="uuid-c0f3fc15-7d2b-43a7-bbaa-bbfcf9aab8ad" d="M180.5,97l.7-1.3c.2,.2,.4,.4,.8,.5s.6,.2,.9,.2c.4,0,.8-.1,1.1-.3s.4-.5,.4-.9,0-.4-.2-.5-.4-.3-.8-.5l-1-.6c-.3-.2-.5-.4-.7-.7-.2-.3-.2-.6-.2-.9,0-.7,.3-1.3,.8-1.7,.6-.4,1.2-.6,2.1-.6s1.2,.2,2,.5l-.6,1.3c-.5-.4-1-.6-1.5-.6s-.7,0-.9,.3-.4,.4-.4,.7,0,.4,.2,.6c.2,.2,.4,.3,.8,.5l1,.5c.3,.2,.5,.4,.7,.6s.2,.6,.2,.9c0,.8-.3,1.5-.9,2-.6,.5-1.4,.7-2.3,.7s-1.5-.2-2.2-.6h0Z"/><path class="uuid-c0f3fc15-7d2b-43a7-bbaa-bbfcf9aab8ad" d="M191.4,97.4l1.9-10.5h1.5l-1.9,10.5h-1.5Z"/><path class="uuid-c0f3fc15-7d2b-43a7-bbaa-bbfcf9aab8ad" d="M200.2,97.4l.8-4.5c0-.4,.1-.7,.1-1,0-.8-.4-1.2-1.3-1.2s-.7,0-1.1,.3c-.4,.2-.7,.4-.9,.7l-1,5.7h-1.4l1-5.8c0-.1,0-.3,0-.5,0-.5,0-.9-.2-1.3l1.3-.3c.1,.7,.2,1.1,.2,1.1,.6-.8,1.4-1.1,2.5-1.1s2.1,.7,2.1,2.1,0,.6,0,.9l-.8,4.8h-1.5Z"/><path class="uuid-c0f3fc15-7d2b-43a7-bbaa-bbfcf9aab8ad" d="M208.2,97.4l.8-4.5c0-.4,.1-.7,.1-1,0-.8-.4-1.2-1.3-1.2s-.7,0-1.1,.3c-.4,.2-.7,.4-.9,.7l-1,5.7h-1.4l1-5.8c0-.1,0-.3,0-.5,0-.5,0-.9-.2-1.3l1.3-.3c.1,.7,.2,1.1,.2,1.1,.6-.8,1.4-1.1,2.5-1.1s2.1,.7,2.1,2.1,0,.6,0,.9l-.8,4.8h-1.5Z"/><path class="uuid-c0f3fc15-7d2b-43a7-bbaa-bbfcf9aab8ad" d="M211.6,94.6c0-1.4,.4-2.6,1.2-3.5s1.8-1.5,3.1-1.5,1.7,.2,2.1,.8c.5,.5,.7,1.2,.7,2.1s-.2,1.5-.4,2.3-.8,1.5-1.5,2c-.7,.5-1.5,.8-2.4,.8s-1.6-.3-2.1-.8c-.5-.5-.7-1.3-.7-2.2h0Zm1.4,0c0,1.3,.5,1.9,1.6,1.9s1.5-.4,1.9-1.2,.7-1.7,.7-2.7-.5-1.9-1.6-1.9-1,.2-1.5,.6-.7,.9-.9,1.5-.3,1.2-.3,1.7h0Z"/><path class="uuid-c0f3fc15-7d2b-43a7-bbaa-bbfcf9aab8ad" d="M222.3,97.6h-.4l-2.2-7.9h1.4l1.4,5.3,2.9-5.3h1.6l-4.7,7.9h0Z"/><path class="uuid-c0f3fc15-7d2b-43a7-bbaa-bbfcf9aab8ad" d="M233.7,90.2l-.9,4.5c0,.2,0,.4,0,.7,0,.7,.1,1.4,.4,2.1h-1.4c0-.2-.2-.4-.2-.8-.2,.3-.6,.5-1,.7s-.9,.3-1.4,.3c-.8,0-1.3-.2-1.8-.7-.4-.4-.6-1.1-.6-1.9,0-1.4,.4-2.7,1.3-3.8s1.9-1.6,3.2-1.6,2.1,.2,2.7,.6h0Zm-1.5,.8c-.1-.2-.6-.3-1.3-.3s-1.4,.4-2,1.2c-.6,.8-.9,1.8-.9,3s.4,1.5,1.4,1.5,.9-.2,1.3-.7,.7-1.1,.9-1.9l.6-2.8Z"/><path class="uuid-c0f3fc15-7d2b-43a7-bbaa-bbfcf9aab8ad" d="M236.2,90.8h-.9l.2-1.1h.9l.3-1.6,1.6-.6-.5,2.2h2.1l-.2,1.1h-2.1l-.8,3.8c0,.3,0,.5,0,.7,0,.7,.4,1.1,1.1,1.1s.7,0,1.1-.3v1.2c-.4,.1-1.1,.2-1.9,.2s-1-.2-1.3-.5-.5-.8-.5-1.4,0-.3,0-.5l.9-4.4h0Z"/><path class="uuid-c0f3fc15-7d2b-43a7-bbaa-bbfcf9aab8ad" d="M241.1,97.4l1.2-6.6h-1l.2-1.1h2.3l-1.4,7.7h-1.4Zm2.2-10.7c.3,0,.5,0,.7,.3,.2,.2,.3,.4,.3,.7s0,.5-.3,.7c-.2,.2-.4,.3-.7,.3s-.5,0-.7-.3c-.2-.2-.3-.4-.3-.7s0-.5,.3-.7c.2-.2,.4-.3,.7-.3Z"/><path class="uuid-c0f3fc15-7d2b-43a7-bbaa-bbfcf9aab8ad" d="M245.1,94.6c0-1.4,.4-2.6,1.2-3.5,.8-1,1.8-1.5,3.1-1.5s1.7,.2,2.1,.8c.5,.5,.7,1.2,.7,2.1s-.2,1.5-.4,2.3-.8,1.5-1.5,2c-.7,.5-1.5,.8-2.4,.8s-1.6-.3-2.1-.8c-.5-.5-.7-1.3-.7-2.2h0Zm1.4,0c0,1.3,.5,1.9,1.6,1.9s1.5-.4,1.9-1.2,.7-1.7,.7-2.7-.5-1.9-1.6-1.9-1,.2-1.5,.6c-.4,.4-.7,.9-.9,1.5-.2,.6-.3,1.2-.3,1.7h0Z"/><path class="uuid-c0f3fc15-7d2b-43a7-bbaa-bbfcf9aab8ad" d="M257.8,97.4l.8-4.5c0-.4,.1-.7,.1-1,0-.8-.4-1.2-1.3-1.2s-.7,0-1.1,.3c-.4,.2-.7,.4-.9,.7l-1,5.7h-1.4l1-5.8c0-.1,0-.3,0-.5,0-.5,0-.9-.2-1.3l1.3-.3c.1,.7,.2,1.1,.2,1.1,.6-.8,1.4-1.1,2.5-1.1s2.1,.7,2.1,2.1,0,.6,0,.9l-.8,4.8h-1.4Z"/><path class="uuid-c0f3fc15-7d2b-43a7-bbaa-bbfcf9aab8ad" d="M271.6,97.4l.9-5.1h-4.6l-.9,5.1h-1.5l1.9-10.5h1.5l-.7,4.2h4.6l.7-4.2h1.5l-1.9,10.5h-1.5Z"/><path class="uuid-c0f3fc15-7d2b-43a7-bbaa-bbfcf9aab8ad" d="M277.8,89.7l-.9,4.9c0,.2,0,.4,0,.6,0,.8,.4,1.2,1.3,1.2s1-.2,1.5-.6,.8-.8,.9-1.4l.9-4.7h1.4l-1.4,7.7h-1.4l.2-1.1c-.5,.8-1.5,1.2-2.8,1.2s-1.1-.2-1.4-.5c-.3-.4-.5-.9-.5-1.5s0-.5,0-.7l.9-5.1h1.4Z"/><path class="uuid-c0f3fc15-7d2b-43a7-bbaa-bbfcf9aab8ad" d="M284.7,96.7l-.7,.9h-.9c.3-.9,.6-1.9,.8-3.1l1.4-7.9h1.3l-.6,4c.4-.6,1-1,1.9-1s1.5,.3,2,.9c.5,.6,.8,1.4,.8,2.5s-.4,2.3-1.3,3.2-1.9,1.4-3.1,1.4-1.3-.3-1.6-.9h0Zm1-4.9l-.7,3.8s0,.2,.2,.3,.3,.3,.5,.4c.2,.1,.4,.2,.6,.2,.8,0,1.5-.4,2.1-1.1s.9-1.5,.9-2.3c0-1.6-.7-2.3-2.1-2.3s-1,.4-1.4,1.1h0Z"/></g></svg>