<?xml version="1.0" encoding="utf-8"?>
<!-- Generator: Adobe Illustrator 16.0.0, SVG Export Plug-In . SVG Version: 6.00 Build 0)  -->
<!DOCTYPE svg PUBLIC "-//W3C//DTD SVG 1.1//EN" "http://www.w3.org/Graphics/SVG/1.1/DTD/svg11.dtd">
<svg version="1.1" id="Calque_1" xmlns="http://www.w3.org/2000/svg" xmlns:xlink="http://www.w3.org/1999/xlink" x="0px" y="0px"
	 width="149.969px" height="91.229px" viewBox="0 0 149.969 91.229" enable-background="new 0 0 149.969 91.229"
	 xml:space="preserve">
<g id="logo-fond-vert" transform="translate(-305 -34.459)">
	<g id="Groupe_180">
		<path id="Vector" d="M406.98,34.459h8.442v5.236h-8.442c-9.771,0.049-17.66,7.993-17.64,17.764v0.278h-5.2v-0.293
			c-0.061-9.742-8.006-17.59-17.747-17.53c-9.742,0.061-17.59,8.007-17.53,17.748c0.06,9.697,7.937,17.527,17.634,17.53h1.581
			l5.25,5.235h-6.831c-12.694-0.083-22.917-10.441-22.833-23.136c0.083-12.575,10.257-22.75,22.833-22.833
			c4.331-0.003,8.571,1.235,12.22,3.568c3.396,2.176,6.163,5.2,8.029,8.773c1.871-3.57,4.638-6.594,8.028-8.773
			c3.649-2.333,7.891-3.571,12.221-3.568H406.98z"/>
		<path id="Vector-2" d="M387.822,75.223h27.617v5.235h-29.767l-15.459-15.464c-1.182,0.6,0.8,0.927-3.838,0.927
			c-4.675,0.029-8.488-3.737-8.517-8.412c-0.029-4.676,3.738-8.488,8.413-8.518c4.675-0.028,8.488,3.738,8.517,8.413
			c0,0.018,0,0.034,0,0.052c-0.004,1.324-0.314,2.63-0.906,3.815l13.939,13.936V75.223z"/>
	</g>
	<g id="Groupe_181">
		<path id="Vector-3" d="M317.174,108.51c-1.184,0.458-2.445,0.684-3.715,0.664c-1.27,0.02-2.531-0.206-3.715-0.664
			c-1.033-0.404-1.954-1.051-2.687-1.884c-0.678-0.782-1.194-1.689-1.52-2.672c-0.365-1.08-0.546-2.213-0.537-3.353
			c-0.079-2.146,0.656-4.243,2.057-5.87c0.739-0.826,1.659-1.471,2.687-1.884c1.182-0.467,2.444-0.697,3.715-0.681
			c1.271-0.016,2.532,0.216,3.715,0.681c1.033,0.404,1.954,1.051,2.686,1.884c1.403,1.626,2.139,3.724,2.057,5.87
			c0.126,1.145-0.059,2.303-0.537,3.352c-0.33,0.98-0.846,1.888-1.52,2.672l-0.353,0.355l1.5,1.854h-2.59l-0.553-0.68
			c-0.228,0.128-0.464,0.241-0.706,0.34L317.174,108.51z M316.574,106.549l-3.5-4.324l1.567-1.282l3.577,4.464
			c0.586-0.601,1.023-1.331,1.274-2.132c0.267-0.855,0.402-1.746,0.4-2.642c0.072-1.65-0.482-3.267-1.551-4.525
			c-0.535-0.595-1.203-1.054-1.95-1.339c-0.939-0.367-1.94-0.551-2.948-0.541c-1.006-0.01-2.005,0.174-2.943,0.541
			c-0.75,0.282-1.419,0.744-1.95,1.344c-1.067,1.258-1.621,2.872-1.55,4.521c-0.074,1.688,0.479,3.344,1.551,4.649
			c0.528,0.606,1.197,1.074,1.949,1.36c0.941,0.356,1.942,0.53,2.948,0.51c1.006,0.021,2.007-0.153,2.948-0.51l0.169-0.094H316.574z
			"/>
		<path id="Vector-4" d="M326.182,97.235v6.611c-0.012,0.623,0.147,1.237,0.461,1.775c0.287,0.509,0.713,0.925,1.228,1.2
			c0.518,0.283,1.099,0.433,1.689,0.433c0.917-0.055,1.805-0.34,2.582-0.829c1.164-0.796,2.253-1.697,3.255-2.69v-6.5h1.9v11.692
			h-1.9v-2.578c-0.907,0.81-1.907,1.51-2.979,2.086c-0.877,0.475-1.857,0.729-2.855,0.74c-0.937,0.007-1.858-0.234-2.671-0.699
			c-0.796-0.453-1.454-1.113-1.904-1.911c-0.468-0.83-0.711-1.767-0.706-2.719v-6.611H326.182z"/>
		<path id="Vector-5" d="M352.022,108.913v-2.533c-0.986,0.86-2.1,1.563-3.3,2.085c-1.124,0.47-2.329,0.711-3.546,0.711
			c-0.922,0.029-1.842-0.106-2.717-0.399c-0.766-0.234-1.458-0.66-2.012-1.238c-0.512-0.565-0.787-1.307-0.768-2.07
			c0.025-1.425,0.999-2.657,2.38-3.012c2.011-0.678,4.127-0.986,6.248-0.911c1.226-0.032,2.452,0.024,3.669,0.17
			c-0.075-0.909-0.601-1.722-1.4-2.163c-0.952-0.508-2.022-0.753-3.1-0.711c-1.03-0.016-2.056,0.131-3.04,0.434
			c-0.972,0.254-1.901,0.649-2.757,1.174l-1-1.637c0.928-0.541,1.917-0.972,2.945-1.282c1.138-0.358,2.323-0.541,3.516-0.541
			c2.364,0,4.083,0.479,5.158,1.437c1.171,1.19,1.765,2.832,1.627,4.495v6.024h-1.9L352.022,108.913z M347.846,103.476
			c-1.435-0.002-2.866,0.153-4.267,0.463c-1.336,0.293-2,0.8-2,1.514s0.353,0.989,1.075,1.313c0.775,0.333,1.613,0.496,2.456,0.479
			c1.262,0.018,2.506-0.296,3.608-0.911c1.223-0.74,2.329-1.656,3.285-2.719c-1.382-0.093-2.779-0.154-4.176-0.154L347.846,103.476z
			"/>
		<path id="Vector-6" d="M358.896,97.235v2.58c0.908-0.811,1.909-1.511,2.982-2.086c0.877-0.476,1.857-0.729,2.855-0.741
			c0.937-0.007,1.858,0.234,2.671,0.7c0.795,0.454,1.452,1.116,1.9,1.915c0.468,0.829,0.711,1.767,0.706,2.719v6.605h-1.9v-6.61
			c0.012-0.623-0.147-1.237-0.461-1.776c-0.292-0.505-0.716-0.92-1.228-1.2c-0.518-0.283-1.099-0.433-1.689-0.433
			c-0.916,0.058-1.803,0.344-2.579,0.834c-1.164,0.794-2.254,1.692-3.257,2.683v6.5h-1.9V97.235H358.896z"/>
		<path id="Vector-7" d="M381.357,108.635c-0.965,0.366-1.991,0.55-3.023,0.541c-1.317-0.006-2.596-0.445-3.638-1.251
			c-0.943-0.896-1.438-2.165-1.351-3.463V99.15h-2.564v-1.915h2.564v-4.773h1.9v4.773h6.079v1.915h-6.076v5.329
			c-0.072,0.763,0.205,1.518,0.752,2.054c0.669,0.495,1.487,0.746,2.318,0.711c0.819,0.013,1.632-0.135,2.395-0.433
			c0.809-0.342,1.564-0.8,2.241-1.359l1.183,1.5c-0.844,0.705-1.791,1.273-2.81,1.684L381.357,108.635z"/>
		<path id="Vector-8" d="M398.061,108.913v-2.533c-0.986,0.86-2.1,1.563-3.3,2.085c-1.123,0.47-2.328,0.711-3.546,0.711
			c-0.922,0.029-1.842-0.106-2.717-0.399c-0.766-0.234-1.458-0.66-2.012-1.238c-0.513-0.565-0.787-1.307-0.769-2.07
			c0.025-1.425,0.999-2.657,2.38-3.012c2.01-0.678,4.127-0.986,6.248-0.911c1.225-0.032,2.451,0.024,3.668,0.17
			c-0.074-0.909-0.6-1.722-1.4-2.163c-0.951-0.508-2.021-0.753-3.1-0.711c-1.029-0.016-2.055,0.131-3.039,0.434
			c-0.973,0.254-1.9,0.649-2.757,1.174l-1-1.637c0.929-0.541,1.917-0.972,2.945-1.282c1.138-0.358,2.323-0.541,3.517-0.541
			c2.363,0,4.082,0.479,5.157,1.437c1.171,1.19,1.765,2.832,1.627,4.495v6.024h-1.899L398.061,108.913z M393.885,103.476
			c-1.435-0.002-2.865,0.153-4.267,0.463c-1.336,0.293-2,0.8-2,1.514s0.353,0.989,1.075,1.313c0.775,0.333,1.612,0.496,2.455,0.479
			c1.262,0.018,2.506-0.296,3.608-0.911c1.223-0.74,2.329-1.656,3.285-2.719c-1.382-0.093-2.778-0.154-4.176-0.154L393.885,103.476z
			"/>
		<path id="Vector-9" d="M405,93.434c1.263-0.908,2.789-1.375,4.344-1.328h2.057v1.915h-2.057c-2.732,0.062-4.068,1.128-4.021,3.2
			h6.078v1.912h-6.078v9.778h-1.9v-9.778h-2.566v-1.915h2.563c-0.127-1.453,0.472-2.875,1.601-3.8L405,93.434z M413.95,92.446h1.905
			v16.466h-1.9L413.95,92.446z"/>
		<path id="Vector-10" d="M425.525,109.175c-1.311,0.028-2.611-0.214-3.823-0.711c-1.057-0.422-1.965-1.147-2.61-2.085
			c-0.646-0.983-0.974-2.144-0.936-3.32c-0.035-1.176,0.291-2.334,0.936-3.317c0.656-0.935,1.568-1.66,2.626-2.089
			c1.215-0.486,2.514-0.729,3.822-0.711c1.31-0.025,2.61,0.217,3.823,0.711c1.058,0.429,1.969,1.154,2.625,2.089
			c0.643,0.975,0.969,2.123,0.936,3.29c0.033,1.167-0.293,2.315-0.936,3.29c-0.652,0.937-1.564,1.662-2.625,2.085
			c-1.213,0.494-2.514,0.736-3.823,0.711L425.525,109.175z M425.525,98.888c-1.393-0.059-2.769,0.309-3.946,1.053
			c-1.02,0.707-1.597,1.894-1.522,3.132c-0.08,1.233,0.485,2.42,1.492,3.136c1.186,0.751,2.574,1.118,3.977,1.05
			c1.392,0.066,2.77-0.301,3.945-1.05c1.019-0.708,1.595-1.896,1.52-3.136c0.072-1.234-0.504-2.416-1.52-3.12
			c-1.179-0.757-2.563-1.13-3.962-1.066L425.525,98.888z"/>
		<path id="Vector-11" d="M444.27,99.613l-4.054,9.3h-1.6l-5.062-11.694h2.071l3.792,8.728l3.792-8.728h2.101l3.791,8.728
			l3.795-8.728h2.072l-5.08,11.693h-1.601l-4.054-9.3L444.27,99.613z"/>
	</g>
	<g id="Groupe_182">
		<path id="Vector-12" d="M335.335,120.513c-0.127-1.516,0.997-2.848,2.512-2.975c0.033-0.003,0.065-0.005,0.098-0.007
			c1.352,0.058,2.401,1.2,2.344,2.552c-0.002,0.05-0.005,0.099-0.011,0.148c0,1.591-0.031,0.51-0.061,0.648h-3.592
			c0.014,0.895,0.75,1.609,1.645,1.595c0.009,0,0.019,0,0.028,0c0.475,0.068,0.954-0.085,1.3-0.417l0.445,0.834
			c-0.569,0.394-1.242,0.609-1.934,0.617c-1.507,0.031-2.753-1.165-2.785-2.672c-0.002-0.102,0.001-0.204,0.011-0.306V120.513z
			 M339.127,119.972c0-0.881-0.384-1.406-1.167-1.406s-1.243,0.494-1.351,1.406H339.127z"/>
		<path id="Vector-13" d="M340.723,117.671h1.351l0.89,2.95c0.154,0.557,0.322,1.144,0.476,1.715h0.046
			c0.154-0.571,0.322-1.158,0.476-1.715l0.891-2.95h1.274l-1.919,5.685h-1.535l-1.965-5.685H340.723z"/>
		<path id="Vector-14" d="M346.572,120.513c-0.127-1.516,0.997-2.848,2.512-2.975c0.033-0.003,0.065-0.005,0.098-0.007
			c1.352,0.058,2.401,1.2,2.344,2.552c-0.002,0.05-0.006,0.099-0.011,0.148c0,1.591-0.031,0.51-0.061,0.648h-3.592
			c0.014,0.895,0.75,1.609,1.645,1.595c0.009,0,0.019,0,0.028,0c0.474,0.068,0.954-0.085,1.3-0.417l0.445,0.834
			c-0.568,0.394-1.242,0.609-1.934,0.617c-1.507,0.031-2.754-1.165-2.785-2.672c-0.002-0.102,0.001-0.204,0.011-0.306V120.513z
			 M350.364,119.972c0-0.881-0.384-1.406-1.167-1.406c-0.783,0-1.243,0.494-1.351,1.406H350.364z"/>
		<path id="Vector-15" d="M352.667,117.671h1.09l0.11,1.02h0.031c0.281-0.653,0.9-1.099,1.609-1.158
			c0.614,0,0.476,0.031,0.645,0.124l-0.23,1.158c-0.188-0.064-0.385-0.097-0.583-0.093c-0.445,0-1,0.309-1.336,1.174v3.476h-1.321
			v-5.685L352.667,117.671z"/>
		<path id="Vector-16" d="M356.658,125.58l0.247-1.035c0.13,0.042,0.264,0.068,0.4,0.077c0.557-0.018,1.025-0.424,1.121-0.973
			l0.107-0.355l-2.228-5.623h1.351l0.983,2.801c0.169,0.51,0.338,1.065,0.491,1.605h0.046c0.138-0.524,0.292-1.081,0.43-1.605
			l0.844-2.801h1.274l-2.042,5.947c-0.476,1.282-1.059,2.07-2.3,2.07c-1.241,0-0.54-0.047-0.739-0.108H356.658z"/>
		<path id="Vector-17" d="M364.226,122.707l0.614-0.85c0.434,0.384,0.987,0.607,1.566,0.633c0.583,0,0.906-0.293,0.906-0.68
			c0-0.388-0.614-0.7-1.213-0.928c-0.737-0.276-1.581-0.71-1.581-1.65c0.063-1.008,0.93-1.774,1.938-1.712
			c0.04,0.003,0.08,0.007,0.12,0.012c0.697-0.088,1.394,0.165,1.873,0.68l-0.614,0.82c-0.349-0.298-0.786-0.473-1.244-0.5
			c-0.445,0-0.844,0.278-0.844,0.633c0,0.355,0.568,0.618,1.182,0.851c0.768,0.293,1.627,0.664,1.627,1.715s-0.768,1.761-2.2,1.761
			C365.559,123.599,364.761,123.305,364.226,122.707z"/>
		<path id="Vector-18" d="M369.616,121.44v-2.704h-0.8v-1l0.875-0.063l0.154-1.548h1.105v1.545h1.443v1.065h-1.443v2.7
			c0,0.664,0.261,1,0.8,1s0.43-0.063,0.583-0.124l0.23,0.988c-0.369,0.141-0.759,0.217-1.153,0.226c-1.304,0-1.78-0.835-1.78-2.055
			L369.616,121.44z"/>
		<path id="Vector-19" d="M372.9,120.513c-0.127-1.516,0.997-2.848,2.512-2.975c0.033-0.003,0.065-0.005,0.098-0.007
			c1.352,0.058,2.401,1.2,2.344,2.552c-0.002,0.05-0.006,0.099-0.011,0.148c0,1.591-0.031,0.51-0.061,0.648h-3.592
			c0.014,0.895,0.75,1.609,1.645,1.595c0.009,0,0.019,0,0.028,0c0.475,0.068,0.954-0.085,1.3-0.417l0.445,0.834
			c-0.569,0.394-1.242,0.609-1.934,0.617c-1.507,0.031-2.753-1.165-2.785-2.672c-0.002-0.102,0.001-0.204,0.011-0.306V120.513z
			 M376.692,119.972c0-0.881-0.384-1.406-1.167-1.406c-0.783,0-1.243,0.494-1.351,1.406H376.692z"/>
		<path id="Vector-20" d="M378.994,117.671h1.09l0.107,0.601h0.031c0.461-0.442,1.066-0.704,1.704-0.739
			c1.412,0,2.227,1.143,2.227,2.889s-1.151,3.073-2.41,3.073c-1.259,0-1-0.231-1.458-0.618l0.046,0.942v1.793h-1.321v-7.94H378.994z
			 M382.786,120.432c0-1.128-0.368-1.808-1.228-1.808c-0.861,0-0.801,0.216-1.229,0.633v2.661c0.31,0.29,0.713,0.46,1.136,0.479
			c0.752,0,1.336-0.664,1.336-1.962L382.786,120.432z"/>
		<path id="Vector-21" d="M387.484,117.671h1.09l0.109,0.772h0.031c0.422-0.536,1.052-0.867,1.732-0.911
			c0.683-0.018,1.305,0.388,1.566,1.019c0.43-0.583,1.088-0.954,1.811-1.019c1.199,0,1.75,0.819,1.75,2.255v3.568h-1.32v-3.4
			c0-0.941-0.275-1.282-0.875-1.282s-0.752,0.232-1.182,0.711v3.971h-1.32v-3.4c0-0.941-0.275-1.282-0.875-1.282
			s-0.752,0.232-1.182,0.711v3.971h-1.321v-5.683H387.484z"/>
		<path id="Vector-22" d="M396.771,121.826c0-1.22,1-1.854,3.332-2.1c-0.016-0.619-0.262-1.129-1.031-1.129
			c-0.576-0.003-1.134,0.194-1.581,0.556l-0.489-0.896c0.689-0.457,1.492-0.714,2.318-0.74c1.412,0,2.1,0.88,2.1,2.456v3.366h-1.086
			l-0.107-0.633h-0.031c-0.473,0.459-1.094,0.732-1.75,0.772c-0.883,0.041-1.632-0.642-1.673-1.524
			c-0.003-0.048-0.003-0.096-0.001-0.144V121.826z M400.104,121.826v-1.282c-1.531,0.2-2.041,0.603-2.041,1.172
			c0,0.57,0.338,0.727,0.813,0.727C399.352,122.412,399.795,122.189,400.104,121.826z"/>
		<path id="Vector-23" d="M402.914,121.44v-2.704h-0.8v-1l0.875-0.063l0.153-1.548h1.105v1.545h1.443v1.065h-1.443v2.7
			c0,0.664,0.261,1,0.8,1s0.431-0.063,0.583-0.124l0.23,0.988c-0.369,0.141-0.759,0.217-1.153,0.226c-1.304,0-1.78-0.835-1.78-2.055
			L402.914,121.44z"/>
		<path id="Vector-24" d="M406.736,121.44v-2.704h-0.801v-1l0.875-0.063l0.154-1.548h1.105v1.545h1.443v1.065h-1.443v2.7
			c0,0.664,0.261,1,0.8,1s0.43-0.063,0.583-0.124l0.23,0.988c-0.369,0.141-0.76,0.217-1.154,0.226c-1.303,0-1.779-0.835-1.779-2.055
			L406.736,121.44z"/>
		<path id="Vector-25" d="M410.02,120.513c-0.127-1.516,0.998-2.848,2.513-2.975c0.032-0.003,0.065-0.005,0.098-0.007
			c1.353,0.058,2.401,1.2,2.344,2.552c-0.002,0.05-0.005,0.099-0.011,0.148c0,1.591-0.031,0.51-0.061,0.648h-3.592
			c0.014,0.895,0.75,1.609,1.645,1.595c0.01,0,0.019,0,0.027,0c0.475,0.068,0.955-0.085,1.301-0.417l0.445,0.834
			c-0.568,0.396-1.242,0.611-1.935,0.617c-1.507,0.031-2.753-1.165-2.784-2.672c-0.003-0.102,0.001-0.204,0.01-0.306V120.513z
			 M413.813,119.972c0-0.881-0.385-1.406-1.168-1.406s-1.242,0.494-1.351,1.406H413.813z"/>
		<path id="Vector-26" d="M416.115,117.671h1.09l0.109,1.02h0.031c0.281-0.653,0.9-1.099,1.609-1.158
			c0.613,0,0.477,0.031,0.645,0.124l-0.229,1.158c-0.188-0.064-0.385-0.097-0.583-0.093c-0.445,0-1,0.309-1.336,1.174v3.476h-1.321
			v-5.685L416.115,117.671z"/>
		<path id="Vector-27" d="M419.661,122.707l0.614-0.85c0.434,0.384,0.986,0.607,1.565,0.633c0.583,0,0.906-0.293,0.906-0.68
			c0-0.388-0.614-0.7-1.213-0.928c-0.737-0.276-1.581-0.71-1.581-1.65c0.063-1.008,0.93-1.774,1.938-1.712
			c0.04,0.003,0.08,0.007,0.119,0.012c0.697-0.088,1.395,0.165,1.873,0.68l-0.613,0.82c-0.35-0.298-0.787-0.473-1.244-0.5
			c-0.445,0-0.844,0.278-0.844,0.633c0,0.355,0.567,0.618,1.182,0.851c0.768,0.293,1.627,0.664,1.627,1.715s-0.768,1.761-2.2,1.761
			C420.994,123.599,420.196,123.305,419.661,122.707z"/>
	</g>
</g>
</svg>
