<?xml version="1.0" encoding="utf-8"?>
<!-- Generator: Adobe Illustrator 16.0.0, SVG Export Plug-In . SVG Version: 6.00 Build 0)  -->
<!DOCTYPE svg PUBLIC "-//W3C//DTD SVG 1.1//EN" "http://www.w3.org/Graphics/SVG/1.1/DTD/svg11.dtd">
<svg version="1.1" id="Calque_1" xmlns="http://www.w3.org/2000/svg" xmlns:xlink="http://www.w3.org/1999/xlink" x="0px" y="0px"
	 width="841.89px" height="595.281px" viewBox="0 0 841.89 595.281" enable-background="new 0 0 841.89 595.281"
	 xml:space="preserve">
<g id="LOGOTYPE_TON_DIRECTS">
	<g>
		<g>
			<g>
				<path d="M517.072,576.396c0,0-28.145,0-32.652,0V557.39c4.508,0,32.652,0,32.652,0c12.061,0,13.645,4.508,13.645,9.502
					C530.716,571.279,529.255,576.396,517.072,576.396z M484.419,522.789c4.508,0,32.652,0,32.652,0c8.65,0,9.746,4.508,9.746,7.92
					c0,6.213-3.41,9.502-9.746,9.502c0,0-28.145,0-32.652,0V522.789z M538.027,546.912c2.803-3.168,5.971-8.162,5.971-16.203
					c0-17.301-13.523-25.098-26.926-25.098h-49.83v87.963h49.83c18.762,0,30.824-10.477,30.824-26.682
					C547.896,557.146,542.779,550.445,538.027,546.912z M403.279,556.416c4.751,0,50.561,0,50.561,0v-17.18c0,0-45.931,0-50.561,0
					v-16.447c4.751,0,55.801,0,55.801,0v-17.178h-72.857v87.963h75.049v-17.178c0,0-52.997,0-57.87,0L403.279,556.416
					L403.279,556.416z M340.169,538.871h-10.965c-11.453,0-11.453-4.752-11.453-6.822c0-8.041,12.427-10.965,20.833-10.965
					c11.453,0,17.057,3.412,22.905,7.066l4.63,2.803l1.34-2.072l8.163-11.695l-2.193-1.584c-10.6-7.797-22.417-11.697-35.332-11.697
					c-18.275,0-37.646,9.869-37.646,28.145c0,16.326,14.011,23.758,27.047,23.758h12.306c12.67,0,23.27,0.854,23.27,10.965
					c0,8.406-14.498,11.453-23.636,11.453c-15.838,0-23.636-6.092-28.875-10.234l-4.751-3.533l-1.462,1.584l-10.355,9.867
					l2.558,2.438c5.604,5.482,17.179,16.936,42.276,16.936c20.712,0,41.667-8.773,41.667-28.51
					C380.496,548.251,366.973,538.871,340.169,538.871z"/>
				<path d="M337.001,482.707c0,6.699-7.188,10.965-16.569,10.965c-10.112,0-19.981-6.092-19.981-19.373
					c0-9.867,8.041-18.883,20.103-18.883c8.894,0,13.523,4.75,15.717,6.822l-2.924,3.045c-2.315-1.949-6.457-5.604-12.549-5.604
					c-9.747,0-15.96,7.066-15.96,14.619c0,8.773,6.214,14.986,15.839,14.986c8.041,0,12.062-3.654,12.062-6.945v-5.115h-12.671
					v-4.266h16.935V482.707L337.001,482.707z"/>
				<path d="M364.779,473.324c4.874,0,8.772-0.607,8.772-6.578c0-4.508-4.021-6.213-7.919-6.213h-16.569v12.791H364.779z
					 M376.963,492.939h-4.874l-8.406-15.229h-14.499v15.229h-4.264v-36.672h18.275c5.482,0,14.864,1.098,14.864,10.479
					c0,7.92-5.117,10.479-9.381,10.844L376.963,492.939z"/>
				<path d="M403.157,489.406c8.772,0,15.351-6.699,15.351-14.863c0-8.162-6.579-14.863-15.351-14.863s-15.351,6.701-15.351,14.863
					C387.684,482.707,394.263,489.406,403.157,489.406z M403.157,455.416c11.208,0,19.737,8.771,19.737,19.127
					s-8.406,19.129-19.737,19.129c-11.209,0-19.737-8.773-19.737-19.129C383.42,464.308,391.827,455.416,403.157,455.416z"/>
				<path d="M463.22,478.685c0,9.381-4.873,14.986-16.203,14.986c-11.574,0-16.203-5.605-16.203-14.986v-22.418h4.264v22.418
					c0,7.797,4.143,10.721,11.818,10.721c7.797,0,11.939-2.924,11.939-10.721v-22.418h4.264v22.418H463.22z"/>
				<path d="M495.019,472.958c4.143,0,7.189-1.219,7.189-6.092c0-5.117-3.533-6.213-7.189-6.213H479.06v12.305H495.019z
					 M479.06,492.939h-4.266v-36.672h20.225c4.508,0,11.574,1.828,11.574,10.479c0,7.797-5.117,10.479-11.574,10.479H479.06V492.939
					z"/>
				<polygon points="543.632,492.939 514.392,492.939 514.392,456.267 543.632,456.267 543.632,460.533 518.656,460.533 
					518.656,471.74 543.632,471.74 543.632,476.005 518.656,476.005 518.656,488.554 543.632,488.554 				"/>
			</g>
			<g>
				<polygon points="379.887,439.576 379.887,388.894 340.169,356.121 300.573,388.894 300.573,439.576 				"/>
				<path d="M448.966,284.36c-57.14-16.569-76.633-22.783-76.633-46.784c0-19.128,14.62-32.651,35.697-33.139h3.412
					c16.081,0.366,28.388,8.285,33.382,20.59c0.365,0.731,0.732,1.827,1.34,3.777c2.072,6.457,2.682,13.036,2.559,19.25v8.407
					h70.664V0h-72.979v143.521c-12.549-3.899-24.854-5.727-35.453-5.727c-65.547,0-109.042,47.637-110.869,98.686
					c-0.122,1.584-0.122,3.29-0.122,4.874c0,66.033,45.2,87.842,87.477,103.193l3.046,1.096v-0.121
					c4.143,1.461,8.163,2.924,11.94,4.264c37.403,13.158,73.222,24.977,73.222,58.969c0,12.061-3.168,22.416-8.771,30.58h76.512
					c2.924-11.088,4.385-22.662,4.385-34.846C548.017,313.234,467.363,289.721,448.966,284.36z"/>
			</g>
		</g>
	</g>
</g>
</svg>
