<?xml version="1.0" encoding="utf-8"?>
<!-- Generator: Adobe Illustrator 16.0.0, SVG Export Plug-In . SVG Version: 6.00 Build 0)  -->
<!DOCTYPE svg PUBLIC "-//W3C//DTD SVG 1.1//EN" "http://www.w3.org/Graphics/SVG/1.1/DTD/svg11.dtd">
<svg version="1.1" id="Calque_1" xmlns="http://www.w3.org/2000/svg" xmlns:xlink="http://www.w3.org/1999/xlink" x="0px" y="0px"
	 width="110px" height="29px" viewBox="0 0 110 29" enable-background="new 0 0 110 29" xml:space="preserve">
<g>
	<g id="logo-staubli_1">
		<g id="Group">
			<g id="Group_2">
				<path id="Vector" d="M39.108,5.832c-0.623-1.213,0.038-2.813,1.475-3.568c1.438-0.756,3.109-0.387,3.73,0.828
					c0.622,1.214-0.038,2.812-1.475,3.568C41.401,7.417,39.73,7.046,39.108,5.832z"/>
				<path id="Vector_2" d="M47.806,5.832c-0.623-1.213,0.039-2.813,1.475-3.568c1.438-0.756,3.108-0.387,3.729,0.828
					c0.623,1.214-0.038,2.812-1.475,3.568C50.099,7.417,48.428,7.046,47.806,5.832z"/>
			</g>
			<path id="Vector_3" d="M95.843,23.8h4.833l5.248-14.87V8.929l-4.861-0.011L95.843,23.8z"/>
			<path id="Vector_4" d="M93.979,8.906h-4.82l-5.223,14.92h10.29l1.056-2.915l-5.452-0.009L93.979,8.906z"/>
			<path id="Vector_5" d="M81.072,16.295c0.957-0.287,1.621-0.507,2.504-1.359c0.885-0.852,1.313-2.536,1.088-3.795
				c-0.215-1.216-1.447-2.224-3.518-2.227l-8.702,0.007l-5.208,14.897h10.011c1.257,0,2.207-0.203,3.21-0.588
				c1.002-0.386,2.037-1.289,2.517-2.932C83.48,18.561,82.848,16.884,81.072,16.295z M77.561,20.519
				c-0.25,0.147-0.785,0.307-1.79,0.306l-3.007-0.004l1.246-3.403l2.855-0.011c1.49-0.007,1.72,1.026,1.573,1.785
				C78.29,19.95,77.813,20.371,77.561,20.519z M79.385,14.207c-0.369,0.297-0.732,0.574-1.899,0.597l-2.587,0.016l1.034-3.249
				l2.616,0.004c0.726,0,1.201,0.109,1.43,0.693C80.207,12.854,79.753,13.911,79.385,14.207z"/>
			<path id="Vector_6" d="M64.504,8.879l-3.387,9.697c-0.505,1.219-1.006,1.554-1.487,1.834c-0.479,0.278-1.163,0.41-1.671,0.388
				c-0.515-0.022-1.103,0.011-1.674-0.658c-0.535-0.625-0.234-1.917,0.207-2.982l2.904-8.278h-4.6l-3.122,8.876
				c-0.256,0.841-0.662,2.236-0.107,3.679c0.555,1.446,1.812,2.136,2.948,2.469c1.139,0.332,2.126,0.336,3.892,0.268
				c1.767-0.07,3.62-0.604,4.601-1.23c0.979-0.623,1.56-1.232,2.357-2.836L69.33,8.879H64.504z"/>
			<path id="Vector_7" d="M42.019,8.897L31.912,23.819h4.338l2.27-3.308h6.192l0.131,3.308h4.706L48.982,8.897H42.019z
				 M40.775,17.188l3.599-5.319l0.207,5.319H40.775z"/>
			<path id="Vector_8" d="M37.343,12.216l1.345-3.318h-14.08l-1.192,3.208l4.748,0.007L24.1,23.844h4.868l4.094-11.601
				L37.343,12.216z"/>
			<path id="Vector_9" d="M26.151,6.968c-1.643-1.04-3.949-1.812-6.175-2.092c-2.183-0.277-5.333,0.415-5.748,2.74
				c-0.773,4.339,9.988,5.439,8.647,12.956c-1.18,6.627-7.74,8.629-14.413,7.781C5.535,27.982,2.366,26.739,0,25.351l2.298-4.224
				c1.919,1.268,4.51,2.474,7.13,2.805c2.924,0.371,5.86-0.514,6.598-3.371c1.07-4.147-10.391-5.507-8.729-12.938
				c1.265-5.647,7.453-7.694,13.296-6.954c2.665,0.338,5.278,1.063,7.602,2.27L26.151,6.968z"/>
		</g>
	</g>
</g>
</svg>
